<?xml version="1.0" standalone="no"?>
<!DOCTYPE svg PUBLIC "-//W3C//DTD SVG 20010904//EN"
 "http://www.w3.org/TR/2001/REC-SVG-20010904/DTD/svg10.dtd">
<svg version="1.0" xmlns="http://www.w3.org/2000/svg"
 width="1034.000000pt" height="1034.000000pt" viewBox="0 0 1034.000000 1034.000000"
 preserveAspectRatio="xMidYMid meet">
<metadata>
Created by potrace 1.11, written by Peter Selinger 2001-2013
</metadata>
<g transform="translate(0.000000,1034.000000) scale(0.100000,-0.100000)"
fill="#000000" stroke="none">
<path d="M5129 10297 c-20 -23 -161 -184 -314 -357 -153 -173 -306 -346 -339
-384 -34 -38 -77 -88 -97 -110 -20 -23 -94 -106 -164 -186 -70 -80 -156 -176
-190 -215 -34 -38 -120 -135 -190 -215 -70 -80 -142 -161 -159 -180 -17 -19
-114 -129 -216 -245 -101 -115 -187 -212 -190 -215 -3 -3 -20 -23 -39 -45 -19
-22 -64 -74 -101 -115 -37 -41 -109 -122 -160 -180 -51 -58 -107 -121 -124
-140 -17 -19 -96 -109 -176 -200 -80 -91 -147 -167 -150 -170 -3 -3 -50 -57
-105 -120 -99 -114 -198 -228 -324 -369 -309 -347 -499 -693 -597 -1086 -4
-16 -8 -34 -10 -40 -7 -26 -25 -124 -30 -160 -3 -22 -7 -46 -10 -53 -18 -56
-26 -439 -11 -582 35 -353 150 -702 332 -1008 47 -79 151 -228 194 -279 57
-67 136 -158 141 -163 3 -3 34 -39 70 -80 36 -41 76 -87 90 -103 14 -16 36
-41 50 -56 14 -15 52 -58 85 -96 66 -76 495 -562 520 -589 6 -6 39 -45 75 -86
36 -41 67 -77 70 -80 3 -3 39 -43 80 -90 41 -47 77 -87 80 -90 3 -3 34 -39 70
-80 55 -64 86 -99 145 -164 6 -6 42 -47 80 -91 39 -44 75 -85 80 -91 6 -6 39
-44 75 -84 36 -40 74 -83 85 -95 11 -13 43 -49 70 -81 28 -31 55 -62 60 -68
27 -29 96 -108 145 -165 30 -36 60 -69 65 -75 6 -6 44 -49 85 -96 125 -143
121 -138 185 -210 22 -25 68 -77 101 -115 34 -39 120 -135 190 -215 71 -80
176 -200 234 -265 58 -66 113 -129 123 -140 10 -11 48 -54 85 -96 37 -42 71
-75 77 -72 5 2 36 35 68 72 32 37 68 79 80 92 12 13 54 60 92 104 39 44 72 82
75 85 3 3 53 59 110 125 58 66 107 122 110 125 4 4 67 75 186 210 17 19 85 96
150 170 66 74 180 205 254 290 74 85 137 157 140 160 9 8 145 163 171 194 13
16 29 34 35 40 13 14 158 177 239 270 33 38 65 74 70 80 6 6 118 133 249 281
131 149 252 286 270 305 72 81 244 277 267 304 13 16 35 40 49 55 14 14 68 75
120 136 52 60 102 116 110 125 16 17 81 91 225 255 211 241 308 381 426 616
98 196 189 479 215 669 2 19 7 46 9 60 26 133 27 536 1 680 -3 14 -7 41 -10
60 -40 265 -148 566 -293 819 -31 54 -143 224 -152 231 -3 3 -19 22 -34 42
-31 43 -150 182 -211 248 -22 25 -70 79 -106 120 -36 41 -67 77 -70 80 -3 3
-34 39 -69 80 -35 41 -92 107 -126 145 -165 185 -245 277 -305 345 -137 156
-157 178 -221 251 -69 77 -280 316 -379 429 -225 256 -317 360 -349 395 -20
22 -83 94 -141 160 -58 66 -109 125 -115 131 -5 6 -37 41 -70 79 -33 37 -67
75 -76 84 -8 9 -94 106 -190 216 -95 110 -179 205 -185 210 -6 6 -60 66 -120
135 -60 69 -111 127 -114 130 -3 3 -70 79 -150 170 -80 91 -163 184 -185 208
-22 24 -41 48 -43 53 -6 16 -16 9 -53 -34z"/>
</g>
</svg>
