<?xml version="1.0" encoding="UTF-8"?>
<svg width="708px" height="321px" viewBox="0 0 708 321" version="1.1" xmlns="http://www.w3.org/2000/svg" xmlns:xlink="http://www.w3.org/1999/xlink">
    <!-- Generator: Sketch 52.6 (67491) - http://www.bohemiancoding.com/sketch -->
    <title>Group 15</title>
    <desc>Created with Sketch.</desc>
    <defs>
        <linearGradient x1="50%" y1="100%" x2="50%" y2="2.45890535%" id="linearGradient-1">
            <stop stop-color="#161717" offset="0%"></stop>
            <stop stop-color="#161717" stop-opacity="0.60229846" offset="61.2581286%"></stop>
            <stop stop-color="#161717" stop-opacity="0" offset="100%"></stop>
        </linearGradient>
    </defs>
    <g id="Page-1" stroke="none" stroke-width="1" fill="none" fill-rule="evenodd">
        <g id="Group-15" transform="translate(-31.000000, 0.000000)">
            <g id="Group-3-Copy" fill="#30150E">
                <polygon id="Rectangle" transform="translate(63.945927, 64.066523) rotate(45.000000) translate(-63.945927, -64.066523) " points="18.9020085 19.1309118 109.138412 18.8665033 108.873919 109.103029 63.8655187 109.266543 18.7534421 64.1543628"></polygon>
                <polygon id="Rectangle-Copy" transform="translate(191.965419, 64.061195) rotate(45.000000) translate(-191.965419, -64.061195) " points="147.05891 19.1546866 237.135911 18.8907031 236.871927 108.967704 146.794926 109.231687"></polygon>
                <polygon id="Rectangle-Copy-2" transform="translate(319.948479, 64.061195) rotate(45.000000) translate(-319.948479, -64.061195) " points="275.041971 19.1546866 365.118971 18.8907031 364.854988 108.967704 274.777987 109.231687"></polygon>
                <polygon id="Rectangle-Copy-3" transform="translate(447.931540, 64.061195) rotate(45.000000) translate(-447.931540, -64.061195) " points="403.025032 19.1546866 493.102032 18.8907031 492.838049 108.967704 402.761048 109.231687"></polygon>
                <polygon id="Rectangle-Copy-4" transform="translate(575.914601, 64.061195) rotate(45.000000) translate(-575.914601, -64.061195) " points="531.008092 19.1546866 621.085093 18.8907031 620.821109 108.967704 530.744109 109.231687"></polygon>
                <polygon id="Rectangle-Copy-5" transform="translate(703.937628, 64.039278) rotate(45.000000) translate(-703.937628, -64.039278) " points="659.019017 19.027298 706.98201 18.8250285 749.120883 60.9478076 749.015318 108.989229 658.754373 109.253528"></polygon>
            </g>
            <rect id="Rectangle-Copy-9" fill="#30150E" x="31.8792453" y="63.7584906" width="705.690566" height="257.207547"></rect>
            <rect id="Rectangle-Copy-12" fill="url(#linearGradient-1)" x="31.8792453" y="103.607547" width="705.690566" height="217.358491"></rect>
        </g>
    </g>
</svg>