<?xml version="1.0" encoding="UTF-8"?>
<svg width="768px" height="1059px" viewBox="0 0 768 1059" version="1.1" xmlns="http://www.w3.org/2000/svg" xmlns:xlink="http://www.w3.org/1999/xlink">
    <!-- Generator: Sketch 52.6 (67491) - http://www.bohemiancoding.com/sketch -->
    <title>Group 2 Copy</title>
    <desc>Created with Sketch.</desc>
    <g id="Page-1" stroke="none" stroke-width="1" fill="none" fill-rule="evenodd">
        <g id="Group-2-Copy">
            <path d="M62.3164526,694.238766 C-20.7721509,600.061501 -20.7721509,458.754499 62.3164526,364.577234 L383.995596,0 L705.674739,364.577234 C788.775087,458.754499 788.775087,600.061501 705.674739,694.238766 L383.995596,1058.816 L62.3164526,694.238766 Z" id="Path" fill="#FF8C5A"></path>
            <path d="M104.90551,480.723635 C63.3354968,433.661752 63.3354968,363.021984 104.90551,315.960101 L384,0 L663.09449,315.960101 C704.664503,363.021984 704.664503,433.661752 663.09449,480.723635 L384,796.672 L104.90551,480.723635 Z" id="Path" fill="#FFCF55" opacity="0.8"></path>
            <path d="M109.083033,747.156844 C67.6470234,700.493326 67.3761229,630.544876 108.447005,583.553566 L384,268.288 L659.552995,583.553566 C700.623877,630.544876 700.352977,700.493326 658.916967,747.156844 L384,1056.768 L109.083033,747.156844 Z" id="Path" fill="#FF5A5A" opacity="0.6"></path>
            <polygon id="Path" fill="#FE505A" points="268.288 927.744 384.02943 796.672 499.712 927.744 384.02943 1058.816"></polygon>
        </g>
    </g>
</svg>