<?xml version="1.0" encoding="UTF-8"?>
<svg width="120px" height="30px" viewBox="0 0 120 30" version="1.1" xmlns="http://www.w3.org/2000/svg" xmlns:xlink="http://www.w3.org/1999/xlink">
    <!-- Generator: Sketch 52.6 (67491) - http://www.bohemiancoding.com/sketch -->
    <title>Group</title>
    <desc>Created with Sketch.</desc>
    <g id="Page-1" stroke="none" stroke-width="1" fill="none" fill-rule="evenodd">
        <g id="iPhone-XS" transform="translate(-128.000000, -24.000000)">
            <g id="Group" transform="translate(128.000000, 24.000000)">
                <path d="M27.768595,7.85717126 C27.768595,7.38368934 28.141785,7 28.6023103,7 L38.8357062,7 C39.2962316,7 39.6694215,7.38368934 39.6694215,7.85717126 L39.6694215,8.69280555 C39.6694215,9.16628747 39.2962316,9.54997681 38.8357062,9.54997681 L35.1260438,9.54997681 L35.1260438,21.1428287 C35.1260438,21.6163107 34.7525316,22 34.2923285,22 L33.1460103,22 C32.6854849,22 32.312295,21.6163107 32.312295,21.1428287 L32.312295,9.54997681 L28.6023103,9.54997681 C28.141785,9.54997681 27.768595,9.16628747 27.768595,8.69280555 L27.768595,7.85717126 Z" id="Path" fill="#FFFFFF"></path>
                <path d="M50.5785124,7 C52.0532683,7 53.393507,7.32677419 54.5985708,7.98064516 C55.8181058,8.63419355 56.7755131,9.53129032 57.470135,10.6716129 C58.1650858,11.8122581 58.5123967,13.0777419 58.5123967,14.4687097 C58.5123967,15.8596774 58.1650858,17.1322581 57.470135,18.2864516 C56.7755131,19.4270968 55.8181058,20.3309677 54.5985708,20.9987097 C53.393507,21.666129 52.0532683,22 50.5785124,22 C49.1037565,22 47.756611,21.666129 46.537076,20.9987097 C45.3320123,20.3309677 44.3818406,19.4270968 43.6868898,18.2864516 C42.991939,17.1322581 42.6446281,15.8596774 42.6446281,14.4687097 C42.6446281,13.0777419 42.991939,11.8122581 43.6868898,10.6716129 C44.3818406,9.53129032 45.3320123,8.63419355 46.537076,7.98064516 C47.756611,7.32677419 49.1037565,7 50.5785124,7 Z M50.6212685,9.50354839 C49.713524,9.50354839 48.8699136,9.72612903 48.0897795,10.1709677 C47.3099744,10.6022581 46.6933001,11.2003226 46.2394279,11.9651613 C45.7855556,12.716129 45.5586195,13.5506452 45.5586195,14.4687097 C45.5586195,15.3867742 45.7855556,16.2280645 46.2394279,16.9929032 C46.7074425,17.7580645 47.3241168,18.3629032 48.0897795,18.8080645 C48.8699136,19.2532258 49.713524,19.4758065 50.6212685,19.4758065 C51.5145417,19.4758065 52.3440097,19.2532258 53.1096724,18.8080645 C53.8756641,18.3629032 54.4781959,17.7580645 54.9179258,16.9929032 C55.3714692,16.2280645 55.5984053,15.3867742 55.5984053,14.4687097 C55.5984053,13.5506452 55.3714692,12.716129 54.9179258,11.9651613 C54.4781959,11.2003226 53.8756641,10.6022581 53.1096724,10.1709677 C52.3440097,9.72612903 51.5145417,9.50354839 50.6212685,9.50354839 Z" id="Shape" fill="#FFFFFF" fill-rule="nonzero"></path>
                <path d="M72.9947385,22 C72.7011473,22 72.4295994,21.8383071 72.2813662,21.5755561 L70.0204903,17.564379 C69.9102738,17.5786265 69.7380805,17.5859159 69.5039104,17.5859159 L66.2395851,17.5859159 L66.2395851,21.1428287 C66.2395851,21.6163107 65.869641,22 65.4131211,22 L64.2975384,22 C63.8410185,22 63.4710744,21.6163107 63.4710744,21.1428287 L63.4710744,7.85717126 C63.4710744,7.38368934 63.8410185,7 64.2975384,7 L69.5039104,7 C71.3772714,7 72.8235036,7.44995693 73.8429264,8.34987078 C74.8620297,9.25011597 75.3719008,10.5214597 75.3719008,12.1642332 C75.3719008,13.3358441 75.1239936,14.335822 74.6278596,15.1644982 C74.1457822,15.9928431 73.4365629,16.6144331 72.4998824,17.0286055 L74.8297634,20.6690155 C75.1942766,21.2385854 74.8003724,22 74.1413096,22 L72.9947385,22 Z M66.2395851,15.0571448 L69.5039104,15.0571448 C70.5508074,15.0571448 71.3497972,14.8215635 71.9008797,14.3500696 C72.4516427,13.8785757 72.7270243,13.17879 72.7270243,12.2500497 C72.7270243,11.3358883 72.4516427,10.6500188 71.9008797,10.1927724 C71.3497972,9.73585739 70.5508074,9.50723421 69.5039104,9.50723421 L66.2395851,9.50723421 L66.2395851,15.0571448 Z" id="Shape" fill="#FFFFFF" fill-rule="nonzero"></path>
                <path d="M92.4538383,10.6132258 C92.1079137,11.0225806 91.4530544,11.0293548 91.0204774,10.7003226 C90.6598253,10.4258065 90.2656083,10.1935484 89.8381687,10.0041935 C89.0997396,9.67032258 88.3465829,9.50354839 87.5786988,9.50354839 C86.6190148,9.50354839 85.7401608,9.71903226 84.9428217,10.1503226 C84.1454826,10.5812903 83.5176808,11.1793548 83.0601013,11.9445161 C82.6021793,12.6954839 82.3733896,13.5229032 82.3733896,14.4270968 C82.3733896,15.3309677 82.6021793,16.1654839 83.0601013,16.9303226 C83.5176808,17.6816129 84.1454826,18.2796774 84.9428217,18.7245161 C85.7401608,19.1558065 86.6190148,19.3712903 87.5786988,19.3712903 C88.3171279,19.3712903 89.0555571,19.2183871 89.7936438,18.9122581 C90.2560183,18.7245161 90.6851703,18.4922581 91.0807574,18.2151613 C91.4883319,17.9296774 92.0726363,17.9390323 92.4120534,18.2951613 L92.9812877,18.8925806 C93.2939899,19.2203226 93.2847424,19.7241935 92.9285428,20.0096774 C92.263066,20.5429032 91.5208694,20.983871 90.7019528,21.3325806 C89.6241065,21.7774194 88.5311902,22 87.4235464,22 C85.9323031,22 84.5664146,21.666129 83.325881,20.9987097 C82.0853474,20.3309677 81.1105935,19.4270968 80.4019618,18.2864516 C79.6929876,17.1322581 79.338843,15.8596774 79.338843,14.4687097 C79.338843,13.0777419 79.7005226,11.8122581 80.4242243,10.6716129 C81.1475835,9.53129032 82.1295299,8.63419355 83.3700635,7.98064516 C84.6253246,7.32677419 86.0134755,7 87.5345163,7 C88.6418176,7 89.7271989,7.20870968 90.7906602,7.62580645 C91.6003293,7.94354839 92.319921,8.35419355 92.9497778,8.85741935 C93.2885099,9.12806452 93.3083749,9.60193548 93.0319777,9.92903226 L92.4538383,10.6132258 Z" id="Path" fill="#FFFFFF"></path>
                <path d="M98.1818182,7.85717126 C98.1818182,7.38368934 98.5847356,7 99.0819454,7 L100.297309,7 C100.79417,7 101.197088,7.38368934 101.197088,7.85717126 L101.197088,13.4070818 L109.050498,13.4070818 L109.050498,7.85717126 C109.050498,7.38368934 109.453763,7 109.950625,7 L111.165988,7 C111.66285,7 112.066116,7.38368934 112.066116,7.85717126 L112.066116,21.1428287 C112.066116,21.6163107 111.66285,22 111.165988,22 L109.950625,22 C109.453763,22 109.050498,21.6163107 109.050498,21.1428287 L109.050498,15.914316 L101.197088,15.914316 L101.197088,21.1428287 C101.197088,21.6163107 100.79417,22 100.297309,22 L99.0819454,22 C98.5847356,22 98.1818182,21.6163107 98.1818182,21.1428287 L98.1818182,7.85717126 Z" id="Path" fill="#FFFFFF"></path>
                <path d="M115.636899,5.50337382 C115.636899,4.41700405 116.453307,3.55330634 117.517315,3.55330634 C118.581323,3.55330634 119.404423,4.41700405 119.404423,5.50337382 C119.404423,6.58974359 118.581323,7.44669366 117.517315,7.44669366 C116.453307,7.44669366 115.636899,6.58974359 115.636899,5.50337382 Z M115.041322,5.50337382 C115.041322,6.87989204 116.152173,8 117.517315,8 C118.882457,8 120,6.87989204 120,5.50337382 C120,4.1268556 118.882457,3 117.517315,3 C116.152173,3 115.041322,4.1268556 115.041322,5.50337382 Z M117.550775,4.90958165 C117.845217,4.90958165 117.992438,5.08502024 118.045973,5.27395412 L118.708469,5.07152497 C118.601399,4.63292848 118.21327,4.2145749 117.537391,4.2145749 C116.82136,4.2145749 116.252551,4.75438596 116.252551,5.52361673 C116.252551,6.28609987 116.834744,6.82591093 117.564158,6.82591093 C118.21327,6.82591093 118.614782,6.40080972 118.728544,5.96896086 L118.066049,5.76653171 C118.012514,5.94871795 117.851909,6.13090418 117.564158,6.13090418 C117.24964,6.13090418 116.995349,5.91497976 116.995349,5.52361673 C116.995349,5.12550607 117.242948,4.90958165 117.550775,4.90958165 Z" id="Shape" fill="#FFFFFF" fill-rule="nonzero"></path>
                <path d="M1.77035377,19.6702383 C-0.590117923,17.0018634 -0.590117923,12.9981366 1.77035377,10.3297617 L10.9089658,0 L20.0475778,10.3297617 C22.4083831,12.9981366 22.4083831,17.0018634 20.0475778,19.6702383 L10.9089658,30 L1.77035377,19.6702383 Z" id="Path" fill="#FF8C5A"></path>
                <path d="M2.88035703,13.8785392 C1.68450909,12.519858 1.68450909,10.4804808 2.88035703,9.12179959 L10.9090909,0 L18.9378248,9.12179959 C20.1336727,10.4804808 20.1336727,12.519858 18.9378248,13.8785392 L10.9090909,23 L2.88035703,13.8785392 Z" id="Path" fill="#FFCF55" opacity="0.8"></path>
                <path d="M2.89473205,20.9686275 C1.68679262,19.6074504 1.67889534,17.5670507 2.87619063,16.1963119 L10.9090909,7 L18.9419912,16.1963119 C20.1392865,17.5670507 20.1313892,19.6074504 18.9234498,20.9686275 L10.9090909,30 L2.89473205,20.9686275 Z" id="Path" fill="#FF5A5A" opacity="0.6"></path>
                <polygon id="Path" fill="#FE505A" points="7.9338843 26 11.4058415 22 14.8760331 26 11.4058415 30"></polygon>
            </g>
        </g>
    </g>
</svg>